<svg xmlns="http://www.w3.org/2000/svg" viewBox="0 0 800 600">
  <defs>
    <linearGradient id="bg" x1="0%" y1="0%" x2="100%" y2="100%">
      <stop offset="0%" stop-color="#fff7ed" />
      <stop offset="100%" stop-color="#fee2e2" />
    </linearGradient>
    <linearGradient id="bunTop" x1="0%" y1="0%" x2="100%" y2="100%">
      <stop offset="0%" stop-color="#fbbf24" />
      <stop offset="100%" stop-color="#ea580c" />
    </linearGradient>
    <linearGradient id="bunBottom" x1="0%" y1="0%" x2="100%" y2="100%">
      <stop offset="0%" stop-color="#fb923c" />
      <stop offset="100%" stop-color="#c2410c" />
    </linearGradient>
  </defs>
  <rect width="800" height="600" rx="40" fill="url(#bg)" />
  <circle cx="680" cy="90" r="44" fill="#fecaca" opacity="0.55" />
  <circle cx="118" cy="118" r="30" fill="#fed7aa" opacity="0.75" />
  <circle cx="724" cy="492" r="58" fill="#fde68a" opacity="0.4" />
  <ellipse cx="400" cy="490" rx="190" ry="26" fill="#000" opacity="0.08" />
  <path d="M232 272c16-90 92-142 168-142s152 52 168 142H232Z" fill="url(#bunTop)" />
  <circle cx="312" cy="196" r="7" fill="#fef3c7" />
  <circle cx="366" cy="176" r="7" fill="#fef3c7" />
  <circle cx="424" cy="188" r="7" fill="#fef3c7" />
  <circle cx="484" cy="174" r="7" fill="#fef3c7" />
  <circle cx="526" cy="203" r="7" fill="#fef3c7" />
  <rect x="242" y="286" width="316" height="20" rx="10" fill="#65a30d" />
  <rect x="256" y="312" width="288" height="28" rx="14" fill="#f59e0b" />
  <rect x="238" y="344" width="324" height="44" rx="22" fill="#7f1d1d" />
  <rect x="224" y="394" width="352" height="48" rx="24" fill="url(#bunBottom)" />
  <path d="M306 101h188" stroke="#111827" stroke-linecap="round" stroke-width="18" opacity="0.12" />
  <text x="400" y="548" text-anchor="middle" fill="#7c2d12" font-family="Arial, sans-serif" font-size="36" font-weight="700">
    Imagem indisponível
  </text>
</svg>
