<?xml version="1.0" standalone="no"?>
<!DOCTYPE svg PUBLIC "-//W3C//DTD SVG 20010904//EN"
 "http://www.w3.org/TR/2001/REC-SVG-20010904/DTD/svg10.dtd">
<svg version="1.0" xmlns="http://www.w3.org/2000/svg"
 width="1751.000000pt" height="898.000000pt" viewBox="0 0 1751.000000 898.000000"
 preserveAspectRatio="xMidYMid meet">

<g transform="translate(0.000000,898.000000) scale(0.100000,-0.100000)"
fill="#000000" stroke="none">
<path d="M0 4490 l0 -4490 8755 0 8755 0 0 4490 0 4490 -8755 0 -8755 0 0
-4490z m3330 1584 c225 -39 468 -136 661 -266 132 -88 316 -273 403 -407 84
-126 155 -276 190 -395 26 -92 45 -209 27 -171 -9 19 -10 19 -10 -2 -1 -14 5
-23 14 -23 8 0 15 -4 15 -10 0 -7 -533 -10 -1580 -10 l-1580 0 0 34 c0 42 51
222 91 317 185 449 577 781 1068 903 83 21 133 30 276 50 62 9 333 -4 425 -20z
m11019 -1132 c74 -37 89 -130 32 -194 -53 -59 -170 -47 -206 22 -60 117 56
233 174 172z m-4374 -27 c125 -28 215 -84 215 -133 0 -15 -15 -52 -33 -82 -40
-66 -49 -67 -157 -19 -69 30 -84 33 -180 33 -124 1 -163 -15 -194 -78 -17 -36
-18 -43 -5 -80 11 -33 24 -46 64 -68 28 -15 82 -35 120 -44 316 -76 428 -173
429 -369 1 -106 -22 -170 -82 -233 -84 -89 -206 -132 -377 -132 -191 0 -425
92 -425 168 0 37 60 132 87 138 15 4 55 -10 120 -42 94 -47 101 -49 199 -52
117 -5 160 6 204 49 57 57 49 140 -19 185 -20 13 -101 42 -181 65 -231 65
-305 111 -356 216 -23 47 -28 69 -28 137 -1 92 25 163 84 229 102 116 304 160
515 112z m594 -1 c20 -25 21 -39 21 -231 l0 -205 37 32 c64 56 117 75 213 75
73 0 93 -4 142 -28 34 -17 70 -45 89 -68 61 -77 64 -94 67 -429 3 -302 3 -305
-19 -322 -28 -23 -145 -25 -176 -3 -21 15 -22 22 -25 283 -3 296 -7 313 -71
352 -46 29 -134 27 -177 -2 -75 -51 -74 -50 -80 -345 -5 -263 -5 -265 -29
-284 -18 -15 -39 -19 -92 -19 -119 0 -109 -54 -109 607 l0 567 22 23 c19 20
31 23 94 23 66 0 74 -2 93 -26z m-5179 -12 c12 -10 104 -152 204 -316 100
-164 185 -299 190 -300 4 0 13 15 20 34 23 66 340 576 366 590 22 12 170 13
186 2 32 -21 34 -51 34 -595 0 -647 10 -597 -120 -597 -129 0 -120 -28 -121
383 -1 191 -4 347 -8 347 -3 -1 -42 -60 -87 -133 -92 -151 -96 -153 -171 -87
-71 63 -75 46 -5 -21 71 -70 71 -68 14 -164 -55 -94 -68 -105 -122 -105 -32 0
-52 6 -62 18 -9 9 -59 91 -111 182 -52 91 -114 199 -138 240 l-44 74 -5 -348
-5 -348 -24 -19 c-18 -15 -39 -19 -101 -19 -124 0 -113 -56 -114 599 -1 659
-13 601 119 601 65 0 88 -4 105 -18z m-944 -311 c131 -59 133 -235 3 -301 -32
-17 -59 -20 -161 -20 l-123 0 59 -25 c99 -40 156 -110 170 -208 8 -53 -12
-137 -42 -175 l-17 -22 -1288 -3 -1288 -2 -24 50 c-13 28 -27 69 -30 93 -14
91 57 219 142 254 21 9 49 20 63 26 19 8 -3 11 -99 11 -105 1 -132 4 -167 22
-131 63 -117 255 22 304 32 12 268 14 1389 14 1293 1 1352 0 1391 -18z m2636
-21 c36 -11 85 -35 110 -54 89 -68 148 -199 148 -327 0 -113 12 -109 -310
-109 -304 0 -292 4 -247 -75 57 -100 189 -131 332 -79 39 14 85 27 104 28 32
1 36 -3 65 -56 35 -64 32 -77 -23 -115 -69 -47 -140 -66 -260 -71 -138 -5
-213 12 -301 69 -104 67 -164 178 -177 326 -18 214 94 400 279 464 73 25 197
25 280 -1z m965 5 c70 -21 133 -79 169 -157 l29 -63 3 -290 c3 -284 3 -291
-18 -318 -20 -25 -26 -27 -99 -27 -123 0 -115 -20 -121 307 -6 309 -7 315 -75
347 -73 35 -181 4 -220 -64 -18 -32 -20 -57 -25 -298 -5 -246 -6 -265 -24
-278 -28 -20 -155 -19 -184 2 l-22 15 0 395 c0 462 -7 434 106 434 79 0 99 -9
114 -55 l12 -35 39 31 c83 66 206 87 316 54z m3738 4 c130 -24 238 -110 298
-237 27 -58 32 -80 35 -168 3 -75 0 -117 -13 -160 -59 -206 -221 -315 -450
-302 -233 14 -378 165 -392 408 -9 143 34 265 124 352 104 100 238 137 398
107z m1069 -22 c72 -33 127 -85 164 -155 82 -154 82 -350 0 -504 -38 -71 -92
-121 -167 -156 -48 -23 -70 -27 -151 -27 -103 0 -150 16 -199 69 -13 14 -27
23 -32 21 -4 -3 -8 -94 -8 -203 -1 -236 0 -232 -112 -232 -119 0 -109 -54
-109 603 0 653 -9 598 105 605 58 4 66 2 89 -21 14 -15 26 -38 26 -52 0 -33
10 -32 45 5 29 30 79 58 130 71 53 14 162 2 219 -24z m964 -2 c143 -65 226
-216 225 -411 0 -145 -46 -258 -137 -341 -121 -111 -321 -124 -434 -28 -23 20
-42 35 -43 33 0 -2 -1 -93 -3 -202 -2 -194 -3 -199 -25 -217 -18 -15 -40 -19
-92 -19 -119 0 -109 -54 -109 603 0 309 4 567 8 573 17 27 54 35 118 29 69 -8
94 -27 94 -72 0 -13 5 -23 10 -23 6 0 10 4 10 8 0 16 94 76 139 89 67 19 170
9 239 -22z m1366 1 c68 -33 112 -87 137 -167 17 -54 19 -95 19 -349 0 -253 -2
-289 -16 -301 -26 -21 -149 -25 -178 -5 l-25 16 -3 267 c-3 297 -7 314 -71
353 -46 29 -134 27 -177 -2 -75 -51 -74 -50 -80 -345 -5 -263 -5 -265 -29
-284 -30 -25 -145 -27 -179 -3 l-22 15 0 393 c0 457 -6 429 100 428 88 -1 99
-7 112 -58 l12 -44 36 34 c67 65 131 87 237 82 53 -2 86 -10 127 -30z m777 7
c25 -11 62 -35 82 -53 l37 -32 6 30 c9 46 31 59 107 65 55 4 72 1 90 -13 22
-18 22 -21 25 -381 2 -210 -1 -398 -7 -448 -20 -161 -104 -285 -226 -330 -164
-61 -363 -49 -505 30 -22 13 -42 31 -45 40 -7 22 43 129 66 143 13 7 33 2 76
-17 112 -50 241 -60 311 -23 38 20 77 65 91 105 11 34 16 151 6 151 -3 0 -18
-11 -33 -25 -56 -53 -109 -70 -212 -70 -83 0 -102 3 -150 27 -150 74 -233 244
-217 443 17 193 124 334 284 375 57 14 162 6 214 -17z m-7356 -8 l25 -24 0
-253 c0 -227 2 -257 19 -295 26 -56 66 -76 143 -71 70 5 104 27 136 88 21 42
22 55 22 292 0 299 -4 288 115 288 123 0 115 31 115 -430 0 -460 8 -430 -112
-430 -85 0 -108 15 -108 69 l0 35 -32 -31 c-59 -56 -114 -78 -207 -82 -48 -2
-102 2 -125 9 -61 18 -122 65 -153 117 -44 76 -53 142 -53 431 l0 263 25 24
c21 22 33 25 95 25 62 0 74 -3 95 -25z m5770 0 l25 -24 0 -379 c0 -442 4 -422
-93 -430 -65 -5 -99 2 -121 24 -14 13 -16 64 -16 400 l0 385 25 24 c21 22 33
25 90 25 57 0 69 -3 90 -25z m-9975 -1442 c48 -16 117 -60 141 -89 13 -17 13
-17 -12 -1 -25 17 -59 14 -59 -4 0 -5 -3 -8 -7 -7 -5 1 -39 -12 -76 -30 -37
-18 -72 -30 -78 -27 -5 4 -9 -1 -9 -9 0 -9 -3 -15 -7 -14 -16 4 -114 -14 -109
-20 6 -5 -58 -33 -81 -34 -6 -1 -9 -6 -7 -12 3 -7 -11 -11 -33 -12 -21 0 -58
-4 -83 -9 -25 -4 -55 -8 -67 -8 -20 1 -20 -1 -8 -14 8 -8 15 -19 15 -24 0 -6
-7 -3 -16 5 -19 20 -25 20 -18 3 3 -8 -1 -14 -8 -15 -7 0 -26 -3 -41 -7 -20
-4 -26 -2 -22 6 5 8 1 8 -15 -1 -12 -6 -24 -9 -27 -6 -4 3 -12 1 -20 -5 -10
-9 -17 -8 -28 1 -12 10 -18 10 -29 0 -8 -6 -25 -10 -38 -9 -38 4 -138 -13
-138 -23 0 -5 -8 -8 -17 -5 -10 2 -31 -3 -48 -12 -16 -8 -40 -14 -51 -12 -12
1 -44 -5 -71 -14 -28 -9 -57 -17 -66 -19 -9 -1 -19 -5 -23 -8 -3 -4 -16 -3
-29 2 -13 5 -25 6 -28 4 -3 -3 -20 -6 -39 -8 -18 -1 -38 -5 -45 -9 -6 -4 -18
-4 -27 -1 -9 3 -16 1 -16 -4 0 -6 -13 -9 -30 -7 -20 2 -28 0 -24 -7 5 -7 -2
-9 -20 -6 -14 3 -26 2 -26 -2 0 -4 -21 -7 -46 -6 -26 1 -50 -4 -56 -11 -6 -7
-15 -10 -20 -7 -5 3 -17 -1 -26 -10 -11 -9 -23 -12 -31 -6 -16 10 -41 2 -41
-12 0 -6 6 -5 15 2 9 7 15 8 15 2 0 -17 -30 -23 -36 -7 -5 11 -11 12 -25 4
-11 -5 -24 -7 -29 -4 -5 3 -11 1 -14 -3 -3 -5 -19 -9 -36 -10 -17 0 -38 -6
-47 -14 -8 -7 -38 -13 -67 -14 -31 -1 -50 -6 -49 -12 2 -6 -3 -9 -11 -6 -7 3
-21 -2 -30 -11 -9 -9 -16 -12 -16 -7 0 5 -7 9 -15 9 -8 0 -15 -4 -15 -9 0 -5
-9 -6 -20 -3 -11 3 -20 2 -20 -3 0 -5 -10 -13 -22 -17 -13 -4 -26 -8 -30 -10
-5 -1 -52 -4 -105 -6 -55 -2 15 -6 157 -9 239 -5 230 -6 -162 -8 -404 -2 -420
-1 -484 20 -165 54 -262 231 -220 399 35 137 139 234 275 260 25 4 622 6 1326
3 1117 -5 1285 -8 1325 -21z m178 -148 c-3 -3 -9 2 -12 12 -6 14 -5 15 5 6 7
-7 10 -15 7 -18z m-1815 -512 c-7 -2 -19 -2 -25 0 -7 3 -2 5 12 5 14 0 19 -2
13 -5z"/>
<path d="M6877 4396 c-21 -8 -48 -22 -59 -33 -21 -18 -57 -88 -58 -110 0 -10
43 -13 180 -13 198 0 194 -2 166 63 -38 89 -133 127 -229 93z"/>
<path d="M11627 4386 c-85 -31 -137 -117 -137 -227 0 -98 22 -159 74 -207 96
-88 248 -58 304 62 17 36 22 64 22 133 0 94 -17 146 -59 190 -49 52 -139 73
-204 49z"/>
<path d="M12605 4391 c-44 -11 -70 -27 -99 -61 -36 -43 -48 -100 -44 -205 3
-80 6 -97 31 -134 94 -142 295 -109 343 58 39 130 -6 279 -96 326 -34 17 -99
25 -135 16z"/>
<path d="M13560 4389 c-47 -14 -96 -53 -116 -91 -22 -42 -30 -183 -15 -245 38
-148 203 -201 316 -102 79 70 95 264 29 365 -38 58 -144 94 -214 73z"/>
<path d="M15865 4395 c-5 -2 -22 -6 -37 -9 -37 -8 -85 -51 -110 -100 -33 -61
-32 -193 1 -260 62 -125 233 -144 325 -36 14 17 28 41 30 53 12 60 13 89 7
163 -9 94 -31 133 -89 163 -36 18 -107 32 -127 26z"/>
</g>
</svg>
